<?xml version="1.0" encoding="UTF-8"?><svg id="a" xmlns="http://www.w3.org/2000/svg" viewBox="0 0 70.9 25.75"><defs><style>.b,.c{fill:#fff;}.d{fill:#f25574;}.c{font-family:ProximaNova-Bold, Proxima Nova;font-size:19.33px;}</style></defs><text class="c" transform="translate(27.86 18.64)"><tspan x="0" y="0">Zayn</tspan></text><g><path class="d" d="M18.83,3.4l-1.87-3.4s1.49,5.63-9.23,13.74c0,0,8.41-2.67,9.65-8.58,0,0,1.35,8.25-10.28,12.01,0,0,11.57,5.33,14.84-6.37,0,0-3.16,5.85-9.46,5.89,0,0,5.6-2.17,6.81-6.08,.23-.74,.38-1.41,.47-2.01,.27-1.79-.06-3.61-.93-5.19Z"/><path class="b" d="M6.17,6.59c-.02-.89-.82-1.2-1.69-.5s-.97,.32-.95-.62c.01-.81-.56-.34-.72-.2-.03,.03-.07,.06-.11,.08-.27,.19-1.29,.87-1.31,.36-.03-.59,.13-1.02,1.46-2.24,.88-.81,1.42-.97,1.9-1.01,.89-.07,1.45,.17,1.63,.23,3.28,1.29,2.89,4.24,1.95,6.48-.95,2.27-3.5,5.79-3.81,7.69-.14,.88,.28,5.07,7.82,3.68,7.98-1.48,9.68-9.2,9.68-9.2,0,0-.19,9.16-7.51,11.58s-11.93-.57-12.84-3.76c-.78-2.75,1.01-5.36,2.23-7.68,.42-.81,.92-1.55,1.52-2.69,.43-.81,.75-1.33,.74-2.22Z"/><path class="d" d="M1.17,7.34s-.41,1-.91,1.44-.23,.92,.45,.79,2.07-.51,2.62-1.9c.56-1.39-.42-1.7-.91-1.25s-1.17-.1-1.26,.92Z"/></g></svg>